<svg width="236" height="236" viewBox="0 0 236 236" fill="none" xmlns="http://www.w3.org/2000/svg">
<path d="M62.8571 177C62.8571 176.022 62.4686 175.084 61.7771 174.393C61.0856 173.701 60.1476 173.312 59.1696 173.312H18.6071C17.6292 173.312 16.6912 173.701 15.9997 174.393C15.3081 175.084 14.9196 176.022 14.9196 177C14.9196 177.978 15.3081 178.916 15.9997 179.607C16.6912 180.299 17.6292 180.688 18.6071 180.688H59.1696C60.1476 180.688 61.0856 180.299 61.7771 179.607C62.4686 178.916 62.8571 177.978 62.8571 177ZM48.1071 195.438C48.1071 194.46 47.7186 193.522 47.0271 192.83C46.3356 192.139 45.3976 191.75 44.4196 191.75H25.9821C25.0042 191.75 24.0662 192.139 23.3747 192.83C22.6831 193.522 22.2946 194.46 22.2946 195.438C22.2946 196.415 22.6831 197.353 23.3747 198.045C24.0662 198.736 25.0042 199.125 25.9821 199.125H44.4196C45.3976 199.125 46.3356 198.736 47.0271 198.045C47.7186 197.353 48.1071 196.415 48.1071 195.438Z" fill="black"/>
<path d="M213.875 33.1875C219.985 33.1875 224.938 28.2346 224.938 22.125C224.938 16.0153 219.985 11.0625 213.875 11.0625C207.765 11.0625 202.812 16.0153 202.812 22.125C202.812 28.2346 207.765 33.1875 213.875 33.1875Z" fill="black"/>
<path d="M40.5625 70.0625C44.6356 70.0625 47.9375 66.7606 47.9375 62.6875C47.9375 58.6144 44.6356 55.3125 40.5625 55.3125C36.4894 55.3125 33.1875 58.6144 33.1875 62.6875C33.1875 66.7606 36.4894 70.0625 40.5625 70.0625Z" fill="black"/>
<path d="M14.75 29.5H22.125V36.875C22.125 37.853 22.5135 38.7909 23.205 39.4825C23.8966 40.174 24.8345 40.5625 25.8125 40.5625C26.7905 40.5625 27.7284 40.174 28.4199 39.4825C29.1115 38.7909 29.5 37.853 29.5 36.875V29.5H36.875C37.853 29.5 38.7909 29.1115 39.4824 28.42C40.174 27.7284 40.5625 26.7905 40.5625 25.8125C40.5625 24.8345 40.174 23.8966 39.4824 23.205C38.7909 22.5135 37.853 22.125 36.875 22.125H29.5V14.75C29.5 13.772 29.1115 12.8341 28.4199 12.1425C27.7284 11.451 26.7905 11.0625 25.8125 11.0625C24.8345 11.0625 23.8966 11.451 23.205 12.1425C22.5135 12.8341 22.125 13.772 22.125 14.75V22.125H14.75C13.772 22.125 12.8341 22.5135 12.1425 23.205C11.451 23.8966 11.0625 24.8345 11.0625 25.8125C11.0625 26.7905 11.451 27.7284 12.1425 28.42C12.8341 29.1115 13.772 29.5 14.75 29.5ZM184.375 66.375H191.75V73.75C191.75 74.728 192.138 75.6659 192.83 76.3575C193.521 77.049 194.459 77.4375 195.437 77.4375C196.415 77.4375 197.353 77.049 198.045 76.3575C198.736 75.6659 199.125 74.728 199.125 73.75V66.375H206.5C207.478 66.375 208.416 65.9865 209.107 65.295C209.799 64.6034 210.187 63.6655 210.187 62.6875C210.187 61.7095 209.799 60.7716 209.107 60.08C208.416 59.3885 207.478 59 206.5 59H199.125V51.625C199.125 50.647 198.736 49.7091 198.045 49.0175C197.353 48.326 196.415 47.9375 195.437 47.9375C194.459 47.9375 193.521 48.326 192.83 49.0175C192.138 49.7091 191.75 50.647 191.75 51.625V59H184.375C183.397 59 182.459 59.3885 181.767 60.08C181.076 60.7716 180.687 61.7095 180.687 62.6875C180.687 63.6655 181.076 64.6034 181.767 65.295C182.459 65.9865 183.397 66.375 184.375 66.375ZM197.115 151.188H38.8847C38.3586 151.188 37.8388 151.301 37.36 151.519C36.8812 151.737 36.4546 152.055 36.1089 152.451C35.7631 152.848 35.5061 153.313 35.3552 153.817C35.2043 154.321 35.163 154.852 35.234 155.373L36.4878 164.592C36.591 165.362 37.2511 165.938 38.0292 165.938H58.7308C64.0813 165.938 68.9967 169.544 70.0145 174.795C70.3379 176.401 70.3009 178.06 69.9062 179.65C69.5116 181.241 68.769 182.724 67.7321 183.993C66.6952 185.262 65.3897 186.285 63.9097 186.989C62.4297 187.693 60.812 188.059 59.1733 188.062H52.6095C54.8958 190.6 56.0758 194.154 55.1908 198C54.0108 203.082 49.206 206.5 43.9918 206.5C43.7691 206.499 43.5489 206.547 43.346 206.639C43.1431 206.731 42.9623 206.865 42.8158 207.033C42.6693 207.201 42.5606 207.398 42.4969 207.611C42.4333 207.825 42.4162 208.049 42.4468 208.27L44.2868 221.748C44.4072 222.631 44.8432 223.44 45.5143 224.027C46.1855 224.613 47.0462 224.937 47.9375 224.938H188.062C189.906 224.938 191.466 223.573 191.717 221.748L200.769 155.373C200.84 154.851 200.799 154.321 200.648 153.816C200.497 153.312 200.24 152.846 199.893 152.45C199.547 152.053 199.12 151.735 198.641 151.518C198.162 151.3 197.641 151.187 197.115 151.188ZM121.687 202.149V203.484C121.687 204.462 121.299 205.4 120.607 206.091C119.916 206.783 118.978 207.171 118 207.171C117.022 207.171 116.084 206.783 115.392 206.091C114.701 205.4 114.312 204.462 114.312 203.484V202.477H112.137C111.159 202.477 110.221 202.088 109.529 201.397C108.838 200.705 108.449 199.767 108.449 198.789C108.449 197.811 108.838 196.874 109.529 196.182C110.221 195.49 111.159 195.102 112.137 195.102H119.173C120.034 195.062 120.847 194.691 121.443 194.067C122.039 193.442 122.371 192.613 122.371 191.75C122.371 190.887 122.039 190.058 121.443 189.433C120.847 188.809 120.034 188.438 119.173 188.398H116.827C113.982 188.396 111.254 187.265 109.242 185.253C107.23 183.241 106.099 180.513 106.097 177.667C106.097 172.623 109.611 168.412 114.312 167.272V165.938C114.312 164.96 114.701 164.022 115.392 163.33C116.084 162.639 117.022 162.25 118 162.25C118.978 162.25 119.916 162.639 120.607 163.33C121.299 164.022 121.687 164.96 121.687 165.938V166.944H122.69C123.668 166.944 124.606 167.333 125.298 168.024C125.989 168.716 126.378 169.654 126.378 170.632C126.378 171.61 125.989 172.548 125.298 173.239C124.606 173.931 123.668 174.319 122.69 174.319H116.827C115.938 174.319 115.085 174.672 114.456 175.301C113.827 175.929 113.473 176.782 113.472 177.671C113.472 179.519 114.98 181.023 116.827 181.023H119.173C122.017 181.025 124.745 182.156 126.757 184.167C128.769 186.178 129.9 188.905 129.903 191.75C129.897 194.153 129.084 196.485 127.594 198.37C126.104 200.256 124.024 201.587 121.687 202.149ZM180.687 210.188H162.25C161.272 210.188 160.334 209.799 159.642 209.107C158.951 208.416 158.562 207.478 158.562 206.5C158.562 205.522 158.951 204.584 159.642 203.893C160.334 203.201 161.272 202.812 162.25 202.812H180.687C181.665 202.812 182.603 203.201 183.295 203.893C183.986 204.584 184.375 205.522 184.375 206.5C184.375 207.478 183.986 208.416 183.295 209.107C182.603 209.799 181.665 210.188 180.687 210.188ZM188.062 166.944H169.625C168.647 166.944 167.709 166.556 167.017 165.864C166.326 165.173 165.937 164.235 165.937 163.257C165.937 162.279 166.326 161.341 167.017 160.649C167.709 159.958 168.647 159.569 169.625 159.569H188.062C189.04 159.569 189.978 159.958 190.67 160.649C191.361 161.341 191.75 162.279 191.75 163.257C191.75 164.235 191.361 165.173 190.67 165.864C189.978 166.556 189.04 166.944 188.062 166.944ZM205.677 106.938H165.937C164.959 106.938 164.021 107.326 163.33 108.018C162.638 108.709 162.25 109.647 162.25 110.625H154.875C154.875 109.647 154.486 108.709 153.795 108.018C153.103 107.326 152.165 106.938 151.187 106.938H77.4374C76.4594 106.938 75.5215 107.326 74.83 108.018C74.1384 108.709 73.7499 109.647 73.7499 110.625H66.3749C66.3749 109.647 65.9864 108.709 65.2949 108.018C64.6034 107.326 63.6654 106.938 62.6874 106.938H14.75C13.772 106.938 12.8341 107.326 12.1425 108.018C11.451 108.709 11.0625 109.647 11.0625 110.625C11.0625 111.603 11.451 112.541 12.1425 113.232C12.8341 113.924 13.772 114.312 14.75 114.312H43.8148C49.1617 114.312 54.0771 117.919 55.0986 123.17C55.4221 124.777 55.385 126.436 54.9899 128.027C54.5948 129.618 53.8516 131.102 52.8138 132.371C51.7761 133.64 50.4697 134.663 48.9888 135.366C47.5079 136.07 45.8894 136.435 44.25 136.438H22.125C21.147 136.438 20.2091 136.826 19.5175 137.518C18.826 138.209 18.4375 139.147 18.4375 140.125C18.4375 141.103 18.826 142.041 19.5175 142.732C20.2091 143.424 21.147 143.812 22.125 143.812H36.875C37.853 143.812 38.7909 143.424 39.4824 142.732C40.174 142.041 40.5625 141.103 40.5625 140.125H47.9375C47.9375 141.103 48.326 142.041 49.0175 142.732C49.709 143.424 50.647 143.812 51.625 143.812H206.5C209.076 143.81 211.623 143.268 213.977 142.221C216.331 141.175 218.44 139.648 220.168 137.737C221.896 135.827 223.206 133.576 224.012 131.13C224.818 128.683 225.103 126.095 224.849 123.531C223.912 113.955 215.298 106.938 205.677 106.938Z" fill="black"/>
<path d="M44.25 129.062C45.228 129.062 46.1659 128.674 46.8575 127.982C47.549 127.291 47.9375 126.353 47.9375 125.375C47.9375 124.397 47.549 123.459 46.8575 122.768C46.1659 122.076 45.228 121.688 44.25 121.688H25.8125C24.8345 121.688 23.8966 122.076 23.205 122.768C22.5135 123.459 22.125 124.397 22.125 125.375C22.125 126.353 22.5135 127.291 23.205 127.982C23.8966 128.674 24.8345 129.062 25.8125 129.062H44.25ZM70.0625 99.5625C71.0405 99.5625 71.9784 99.174 72.67 98.4825C73.3615 97.7909 73.75 96.853 73.75 95.875V92.1875C73.75 69.8228 91.9478 51.625 114.312 51.625C136.677 51.625 154.875 69.8228 154.875 92.1875V95.875C154.875 96.853 155.264 97.7909 155.955 98.4825C156.647 99.174 157.585 99.5625 158.562 99.5625C159.54 99.5625 160.478 99.174 161.17 98.4825C161.861 97.7909 162.25 96.853 162.25 95.875V92.1875C162.25 65.7555 140.745 44.25 114.312 44.25C87.8805 44.25 66.375 65.7555 66.375 92.1875V95.875C66.375 96.853 66.7635 97.7909 67.455 98.4825C68.1466 99.174 69.0845 99.5625 70.0625 99.5625Z" fill="black"/>
</svg>
