<svg width="530" height="486" viewBox="0 0 530 486" fill="none" xmlns="http://www.w3.org/2000/svg">
<rect width="530" height="486" rx="33" fill="white"/>
<path d="M47.9508 140.377H142.164C145.374 140.377 147.983 141.481 149.99 143.688C151.996 145.895 153 148.805 153 152.417V358H121.395C114.572 358 110.057 356.896 107.85 354.689C105.843 352.482 104.84 347.866 104.84 340.843V178.002H56.6798C50.8604 178.002 47.9508 173.186 47.9508 163.554V140.377ZM165.04 140.377H213.2C219.019 140.377 221.929 145.193 221.929 154.825V178.002H165.04V140.377ZM286.141 354.388C286.141 356.796 284.736 358 281.927 358C269.285 358 259.452 358 252.429 358C245.405 358 241.693 357.799 241.292 357.398C240.89 356.997 240.589 355.993 240.389 354.388V315.559C240.589 313.954 240.89 312.95 241.292 312.549C241.693 312.148 242.696 311.947 244.302 311.947C256.743 311.947 269.285 311.947 281.927 311.947C284.736 311.947 286.141 313.151 286.141 315.559V354.388ZM372.779 140.678V227.065C372.779 230.276 373.482 232.583 374.886 233.988C376.492 235.393 379.903 236.095 385.12 236.095H407.394V264.69H369.167C357.729 264.69 348.498 263.486 341.475 261.078C334.652 258.67 329.535 254.456 326.124 248.436C322.913 242.215 320.806 235.593 319.803 228.57C319 221.547 318.599 212.115 318.599 200.276C318.599 188.236 319 179.106 319.803 172.885C320.806 166.664 322.913 160.845 326.124 155.427C329.535 150.009 334.652 146.196 341.475 143.989C348.498 141.782 357.729 140.678 369.167 140.678H372.779ZM419.434 236.095H423.046C431.675 236.095 438.297 236.296 442.912 236.697C447.728 236.898 452.344 237.801 456.758 239.406C461.173 240.811 464.183 242.516 465.788 244.523C467.594 246.53 469.2 250.041 470.604 255.058C472.21 259.874 473.113 265.091 473.313 270.71C473.514 276.329 473.614 284.355 473.614 294.79C473.614 305.225 473.514 313.552 473.313 319.773C473.113 325.793 472.21 331.612 470.604 337.231C469.2 342.649 467.594 346.462 465.788 348.669C464.183 350.876 461.173 352.883 456.758 354.689C452.344 356.294 447.728 357.298 442.912 357.699C438.297 357.9 431.675 358 423.046 358H419.434V236.095ZM322.813 290.877H360.739C363.549 290.877 365.254 291.278 365.856 292.081C366.458 292.884 366.759 294.589 366.759 297.198V320.676C366.759 323.887 367.16 326.194 367.963 327.599C368.967 328.803 371.274 329.405 374.886 329.405H407.394V358H363.147C348.499 358 337.362 355.492 329.736 350.475C322.311 345.458 318.599 336.729 318.599 324.288V297.198C318.599 292.984 320.004 290.877 322.813 290.877ZM384.819 140.377H423.046C437.695 140.377 448.732 142.885 456.156 147.902C463.781 152.919 467.594 161.648 467.594 174.089V201.179C467.594 205.393 466.189 207.5 463.38 207.5H425.454C422.645 207.5 420.939 207.099 420.337 206.296C419.735 205.493 419.434 203.788 419.434 201.179V177.701C419.434 174.49 418.933 172.283 417.929 171.079C417.127 169.674 414.919 168.972 411.307 168.972H384.819V140.377Z" fill="black"/>
</svg>
